<mxfile host="app.diagrams.net" modified="2024-02-28T16:14:50.401Z" agent="Mozilla/5.0 (Windows NT 10.0; Win64; x64) AppleWebKit/537.36 (KHTML, like Gecko) Chrome/122.0.0.0 Safari/537.36" etag="vCSP62XSN2ls1SRJAmBI" version="23.1.7" type="device">
  <diagram id="C5RBs43oDa-KdzZeNtuy" name="Page-1">
    <mxGraphModel dx="529" dy="1479" grid="1" gridSize="10" guides="1" tooltips="1" connect="1" arrows="1" fold="1" page="1" pageScale="1" pageWidth="827" pageHeight="1169" math="0" shadow="0">
      <root>
        <mxCell id="WIyWlLk6GJQsqaUBKTNV-0" />
        <mxCell id="WIyWlLk6GJQsqaUBKTNV-1" parent="WIyWlLk6GJQsqaUBKTNV-0" />
        <mxCell id="WIyWlLk6GJQsqaUBKTNV-3" value="&lt;font style=&quot;vertical-align: inherit;&quot;&gt;&lt;font style=&quot;vertical-align: inherit;&quot;&gt;&lt;font style=&quot;vertical-align: inherit;&quot;&gt;&lt;font style=&quot;vertical-align: inherit;&quot;&gt;calificaciones&lt;/font&gt;&lt;/font&gt;&lt;/font&gt;&lt;/font&gt;" style="rounded=1;whiteSpace=wrap;html=1;fontSize=12;glass=0;strokeWidth=1;shadow=0;" parent="WIyWlLk6GJQsqaUBKTNV-1" vertex="1">
          <mxGeometry x="500" y="-40" width="120" height="40" as="geometry" />
        </mxCell>
        <mxCell id="WIyWlLk6GJQsqaUBKTNV-7" value="&lt;font style=&quot;vertical-align: inherit;&quot;&gt;&lt;font style=&quot;vertical-align: inherit;&quot;&gt;inscripciones&lt;/font&gt;&lt;/font&gt;" style="rounded=1;whiteSpace=wrap;html=1;fontSize=12;glass=0;strokeWidth=1;shadow=0;" parent="WIyWlLk6GJQsqaUBKTNV-1" vertex="1">
          <mxGeometry x="500" y="190" width="120" height="40" as="geometry" />
        </mxCell>
        <mxCell id="n0wE-moi7yCpIpVkkYj8-0" value="&lt;font style=&quot;vertical-align: inherit;&quot;&gt;&lt;font style=&quot;vertical-align: inherit;&quot;&gt;id_calificacion&lt;/font&gt;&lt;/font&gt;" style="ellipse;whiteSpace=wrap;html=1;" vertex="1" parent="WIyWlLk6GJQsqaUBKTNV-1">
          <mxGeometry x="600" y="-130" width="100" height="40" as="geometry" />
        </mxCell>
        <mxCell id="n0wE-moi7yCpIpVkkYj8-1" value="&lt;font style=&quot;vertical-align: inherit;&quot;&gt;&lt;font style=&quot;vertical-align: inherit;&quot;&gt;id_inscripcion&lt;/font&gt;&lt;/font&gt;" style="ellipse;whiteSpace=wrap;html=1;" vertex="1" parent="WIyWlLk6GJQsqaUBKTNV-1">
          <mxGeometry x="606" y="250" width="100" height="40" as="geometry" />
        </mxCell>
        <mxCell id="n0wE-moi7yCpIpVkkYj8-2" value="&lt;font style=&quot;vertical-align: inherit;&quot;&gt;&lt;font style=&quot;vertical-align: inherit;&quot;&gt;calificaion_final&lt;/font&gt;&lt;/font&gt;" style="ellipse;whiteSpace=wrap;html=1;" vertex="1" parent="WIyWlLk6GJQsqaUBKTNV-1">
          <mxGeometry x="600" y="-250" width="100" height="40" as="geometry" />
        </mxCell>
        <mxCell id="n0wE-moi7yCpIpVkkYj8-4" value="&lt;font style=&quot;vertical-align: inherit;&quot;&gt;&lt;font style=&quot;vertical-align: inherit;&quot;&gt;feha_calificacion&lt;/font&gt;&lt;/font&gt;" style="ellipse;whiteSpace=wrap;html=1;" vertex="1" parent="WIyWlLk6GJQsqaUBKTNV-1">
          <mxGeometry x="600" y="-310" width="100" height="40" as="geometry" />
        </mxCell>
        <mxCell id="n0wE-moi7yCpIpVkkYj8-5" value="" style="endArrow=none;html=1;rounded=0;exitX=0.5;exitY=0;exitDx=0;exitDy=0;" edge="1" parent="WIyWlLk6GJQsqaUBKTNV-1" source="WIyWlLk6GJQsqaUBKTNV-3">
          <mxGeometry width="50" height="50" relative="1" as="geometry">
            <mxPoint x="580" y="-60" as="sourcePoint" />
            <mxPoint x="560" y="-290" as="targetPoint" />
          </mxGeometry>
        </mxCell>
        <mxCell id="n0wE-moi7yCpIpVkkYj8-6" value="" style="endArrow=none;html=1;rounded=0;entryX=0;entryY=0.5;entryDx=0;entryDy=0;" edge="1" parent="WIyWlLk6GJQsqaUBKTNV-1" target="n0wE-moi7yCpIpVkkYj8-4">
          <mxGeometry width="50" height="50" relative="1" as="geometry">
            <mxPoint x="560" y="-290" as="sourcePoint" />
            <mxPoint x="580" y="-290" as="targetPoint" />
          </mxGeometry>
        </mxCell>
        <mxCell id="n0wE-moi7yCpIpVkkYj8-7" value="" style="endArrow=none;html=1;rounded=0;entryX=0;entryY=0.5;entryDx=0;entryDy=0;" edge="1" parent="WIyWlLk6GJQsqaUBKTNV-1">
          <mxGeometry width="50" height="50" relative="1" as="geometry">
            <mxPoint x="560" y="-230.29" as="sourcePoint" />
            <mxPoint x="600" y="-230.29" as="targetPoint" />
          </mxGeometry>
        </mxCell>
        <mxCell id="n0wE-moi7yCpIpVkkYj8-8" value="" style="endArrow=none;html=1;rounded=0;entryX=0;entryY=0.5;entryDx=0;entryDy=0;" edge="1" parent="WIyWlLk6GJQsqaUBKTNV-1">
          <mxGeometry width="50" height="50" relative="1" as="geometry">
            <mxPoint x="560" y="-170.29" as="sourcePoint" />
            <mxPoint x="600" y="-170.29" as="targetPoint" />
          </mxGeometry>
        </mxCell>
        <mxCell id="n0wE-moi7yCpIpVkkYj8-9" value="" style="endArrow=none;html=1;rounded=0;entryX=0;entryY=0.5;entryDx=0;entryDy=0;" edge="1" parent="WIyWlLk6GJQsqaUBKTNV-1">
          <mxGeometry width="50" height="50" relative="1" as="geometry">
            <mxPoint x="560" y="-110.28999999999999" as="sourcePoint" />
            <mxPoint x="600" y="-110.28999999999999" as="targetPoint" />
          </mxGeometry>
        </mxCell>
        <mxCell id="n0wE-moi7yCpIpVkkYj8-10" value="" style="endArrow=none;html=1;rounded=0;" edge="1" parent="WIyWlLk6GJQsqaUBKTNV-1">
          <mxGeometry width="50" height="50" relative="1" as="geometry">
            <mxPoint x="556" y="480" as="sourcePoint" />
            <mxPoint x="559" y="230" as="targetPoint" />
          </mxGeometry>
        </mxCell>
        <mxCell id="n0wE-moi7yCpIpVkkYj8-11" value="&lt;font style=&quot;vertical-align: inherit;&quot;&gt;&lt;font style=&quot;vertical-align: inherit;&quot;&gt;id_inscripcion&lt;/font&gt;&lt;/font&gt;" style="ellipse;whiteSpace=wrap;html=1;" vertex="1" parent="WIyWlLk6GJQsqaUBKTNV-1">
          <mxGeometry x="600" y="-190" width="100" height="40" as="geometry" />
        </mxCell>
        <mxCell id="n0wE-moi7yCpIpVkkYj8-12" value="&lt;font style=&quot;vertical-align: inherit;&quot;&gt;&lt;font style=&quot;vertical-align: inherit;&quot;&gt;&lt;font style=&quot;vertical-align: inherit;&quot;&gt;&lt;font style=&quot;vertical-align: inherit;&quot;&gt;&lt;font style=&quot;vertical-align: inherit;&quot;&gt;&lt;font style=&quot;vertical-align: inherit;&quot;&gt;id_alumno&lt;/font&gt;&lt;/font&gt;&lt;/font&gt;&lt;/font&gt;&lt;/font&gt;&lt;/font&gt;" style="ellipse;whiteSpace=wrap;html=1;" vertex="1" parent="WIyWlLk6GJQsqaUBKTNV-1">
          <mxGeometry x="606" y="300" width="100" height="40" as="geometry" />
        </mxCell>
        <mxCell id="n0wE-moi7yCpIpVkkYj8-13" value="&lt;font style=&quot;vertical-align: inherit;&quot;&gt;&lt;font style=&quot;vertical-align: inherit;&quot;&gt;&lt;font style=&quot;vertical-align: inherit;&quot;&gt;&lt;font style=&quot;vertical-align: inherit;&quot;&gt;&lt;font style=&quot;vertical-align: inherit;&quot;&gt;&lt;font style=&quot;vertical-align: inherit;&quot;&gt;&lt;font style=&quot;vertical-align: inherit;&quot;&gt;&lt;font style=&quot;vertical-align: inherit;&quot;&gt;id_materia&lt;/font&gt;&lt;/font&gt;&lt;/font&gt;&lt;/font&gt;&lt;/font&gt;&lt;/font&gt;&lt;/font&gt;&lt;/font&gt;" style="ellipse;whiteSpace=wrap;html=1;" vertex="1" parent="WIyWlLk6GJQsqaUBKTNV-1">
          <mxGeometry x="606" y="350" width="100" height="40" as="geometry" />
        </mxCell>
        <mxCell id="n0wE-moi7yCpIpVkkYj8-14" value="&lt;font style=&quot;vertical-align: inherit;&quot;&gt;&lt;font style=&quot;vertical-align: inherit;&quot;&gt;fecha_inscripcion&lt;/font&gt;&lt;/font&gt;" style="ellipse;whiteSpace=wrap;html=1;" vertex="1" parent="WIyWlLk6GJQsqaUBKTNV-1">
          <mxGeometry x="606" y="400" width="100" height="40" as="geometry" />
        </mxCell>
        <mxCell id="n0wE-moi7yCpIpVkkYj8-15" value="&lt;font style=&quot;vertical-align: inherit;&quot;&gt;&lt;font style=&quot;vertical-align: inherit;&quot;&gt;estado&lt;/font&gt;&lt;/font&gt;" style="ellipse;whiteSpace=wrap;html=1;" vertex="1" parent="WIyWlLk6GJQsqaUBKTNV-1">
          <mxGeometry x="606" y="450" width="100" height="40" as="geometry" />
        </mxCell>
        <mxCell id="n0wE-moi7yCpIpVkkYj8-16" value="" style="endArrow=none;html=1;rounded=0;entryX=0;entryY=0.5;entryDx=0;entryDy=0;" edge="1" parent="WIyWlLk6GJQsqaUBKTNV-1" target="n0wE-moi7yCpIpVkkYj8-1">
          <mxGeometry width="50" height="50" relative="1" as="geometry">
            <mxPoint x="560" y="269.58000000000004" as="sourcePoint" />
            <mxPoint x="600" y="269.58000000000004" as="targetPoint" />
          </mxGeometry>
        </mxCell>
        <mxCell id="n0wE-moi7yCpIpVkkYj8-17" value="" style="endArrow=none;html=1;rounded=0;entryX=0;entryY=0.5;entryDx=0;entryDy=0;" edge="1" parent="WIyWlLk6GJQsqaUBKTNV-1">
          <mxGeometry width="50" height="50" relative="1" as="geometry">
            <mxPoint x="560" y="319.71000000000004" as="sourcePoint" />
            <mxPoint x="606" y="320.13" as="targetPoint" />
          </mxGeometry>
        </mxCell>
        <mxCell id="n0wE-moi7yCpIpVkkYj8-18" value="" style="endArrow=none;html=1;rounded=0;entryX=0;entryY=0.5;entryDx=0;entryDy=0;" edge="1" parent="WIyWlLk6GJQsqaUBKTNV-1">
          <mxGeometry width="50" height="50" relative="1" as="geometry">
            <mxPoint x="560" y="369.71000000000004" as="sourcePoint" />
            <mxPoint x="606" y="370.13" as="targetPoint" />
          </mxGeometry>
        </mxCell>
        <mxCell id="n0wE-moi7yCpIpVkkYj8-19" value="" style="endArrow=none;html=1;rounded=0;entryX=0;entryY=0.5;entryDx=0;entryDy=0;" edge="1" parent="WIyWlLk6GJQsqaUBKTNV-1">
          <mxGeometry width="50" height="50" relative="1" as="geometry">
            <mxPoint x="560" y="419.71000000000004" as="sourcePoint" />
            <mxPoint x="606" y="420.13" as="targetPoint" />
          </mxGeometry>
        </mxCell>
        <mxCell id="n0wE-moi7yCpIpVkkYj8-20" value="" style="endArrow=none;html=1;rounded=0;entryX=0;entryY=0.5;entryDx=0;entryDy=0;" edge="1" parent="WIyWlLk6GJQsqaUBKTNV-1">
          <mxGeometry width="50" height="50" relative="1" as="geometry">
            <mxPoint x="556" y="480" as="sourcePoint" />
            <mxPoint x="606" y="480.42" as="targetPoint" />
          </mxGeometry>
        </mxCell>
        <mxCell id="n0wE-moi7yCpIpVkkYj8-23" value="&lt;font style=&quot;vertical-align: inherit;&quot;&gt;&lt;font style=&quot;vertical-align: inherit;&quot;&gt;profesores&lt;/font&gt;&lt;/font&gt;" style="rounded=1;whiteSpace=wrap;html=1;fontSize=12;glass=0;strokeWidth=1;shadow=0;" vertex="1" parent="WIyWlLk6GJQsqaUBKTNV-1">
          <mxGeometry x="80" y="-40" width="120" height="40" as="geometry" />
        </mxCell>
        <mxCell id="n0wE-moi7yCpIpVkkYj8-25" value="&lt;font style=&quot;vertical-align: inherit;&quot;&gt;&lt;font style=&quot;vertical-align: inherit;&quot;&gt;id_profesor&lt;/font&gt;&lt;/font&gt;" style="ellipse;whiteSpace=wrap;html=1;" vertex="1" parent="WIyWlLk6GJQsqaUBKTNV-1">
          <mxGeometry x="180" y="-130" width="100" height="40" as="geometry" />
        </mxCell>
        <mxCell id="n0wE-moi7yCpIpVkkYj8-26" value="&lt;font style=&quot;vertical-align: inherit;&quot;&gt;&lt;font style=&quot;vertical-align: inherit;&quot;&gt;apellido&lt;/font&gt;&lt;/font&gt;" style="ellipse;whiteSpace=wrap;html=1;" vertex="1" parent="WIyWlLk6GJQsqaUBKTNV-1">
          <mxGeometry x="180" y="-250" width="100" height="40" as="geometry" />
        </mxCell>
        <mxCell id="n0wE-moi7yCpIpVkkYj8-27" value="&lt;font style=&quot;vertical-align: inherit;&quot;&gt;&lt;font style=&quot;vertical-align: inherit;&quot;&gt;correo_electronico&lt;/font&gt;&lt;/font&gt;" style="ellipse;whiteSpace=wrap;html=1;" vertex="1" parent="WIyWlLk6GJQsqaUBKTNV-1">
          <mxGeometry x="180" y="-310" width="100" height="40" as="geometry" />
        </mxCell>
        <mxCell id="n0wE-moi7yCpIpVkkYj8-28" value="" style="endArrow=none;html=1;rounded=0;exitX=0.5;exitY=0;exitDx=0;exitDy=0;" edge="1" parent="WIyWlLk6GJQsqaUBKTNV-1" source="n0wE-moi7yCpIpVkkYj8-23">
          <mxGeometry width="50" height="50" relative="1" as="geometry">
            <mxPoint x="160" y="-60" as="sourcePoint" />
            <mxPoint x="140" y="-290" as="targetPoint" />
          </mxGeometry>
        </mxCell>
        <mxCell id="n0wE-moi7yCpIpVkkYj8-29" value="" style="endArrow=none;html=1;rounded=0;entryX=0;entryY=0.5;entryDx=0;entryDy=0;" edge="1" parent="WIyWlLk6GJQsqaUBKTNV-1" target="n0wE-moi7yCpIpVkkYj8-27">
          <mxGeometry width="50" height="50" relative="1" as="geometry">
            <mxPoint x="140" y="-290" as="sourcePoint" />
            <mxPoint x="160" y="-290" as="targetPoint" />
          </mxGeometry>
        </mxCell>
        <mxCell id="n0wE-moi7yCpIpVkkYj8-30" value="" style="endArrow=none;html=1;rounded=0;entryX=0;entryY=0.5;entryDx=0;entryDy=0;" edge="1" parent="WIyWlLk6GJQsqaUBKTNV-1">
          <mxGeometry width="50" height="50" relative="1" as="geometry">
            <mxPoint x="140" y="-230.29" as="sourcePoint" />
            <mxPoint x="180" y="-230.29" as="targetPoint" />
          </mxGeometry>
        </mxCell>
        <mxCell id="n0wE-moi7yCpIpVkkYj8-31" value="" style="endArrow=none;html=1;rounded=0;entryX=0;entryY=0.5;entryDx=0;entryDy=0;" edge="1" parent="WIyWlLk6GJQsqaUBKTNV-1">
          <mxGeometry width="50" height="50" relative="1" as="geometry">
            <mxPoint x="140" y="-170.29" as="sourcePoint" />
            <mxPoint x="180" y="-170.29" as="targetPoint" />
          </mxGeometry>
        </mxCell>
        <mxCell id="n0wE-moi7yCpIpVkkYj8-32" value="" style="endArrow=none;html=1;rounded=0;entryX=0;entryY=0.5;entryDx=0;entryDy=0;" edge="1" parent="WIyWlLk6GJQsqaUBKTNV-1">
          <mxGeometry width="50" height="50" relative="1" as="geometry">
            <mxPoint x="140" y="-110.28999999999999" as="sourcePoint" />
            <mxPoint x="180" y="-110.28999999999999" as="targetPoint" />
          </mxGeometry>
        </mxCell>
        <mxCell id="n0wE-moi7yCpIpVkkYj8-33" value="&lt;font style=&quot;vertical-align: inherit;&quot;&gt;&lt;font style=&quot;vertical-align: inherit;&quot;&gt;nombre&lt;/font&gt;&lt;/font&gt;" style="ellipse;whiteSpace=wrap;html=1;" vertex="1" parent="WIyWlLk6GJQsqaUBKTNV-1">
          <mxGeometry x="180" y="-190" width="100" height="40" as="geometry" />
        </mxCell>
        <mxCell id="n0wE-moi7yCpIpVkkYj8-35" value="&lt;font style=&quot;vertical-align: inherit;&quot;&gt;&lt;font style=&quot;vertical-align: inherit;&quot;&gt;materias&lt;/font&gt;&lt;/font&gt;" style="rounded=1;whiteSpace=wrap;html=1;fontSize=12;glass=0;strokeWidth=1;shadow=0;" vertex="1" parent="WIyWlLk6GJQsqaUBKTNV-1">
          <mxGeometry x="80" y="190" width="120" height="40" as="geometry" />
        </mxCell>
        <mxCell id="n0wE-moi7yCpIpVkkYj8-36" value="&lt;font style=&quot;vertical-align: inherit;&quot;&gt;&lt;font style=&quot;vertical-align: inherit;&quot;&gt;id_materia&lt;/font&gt;&lt;/font&gt;" style="ellipse;whiteSpace=wrap;html=1;" vertex="1" parent="WIyWlLk6GJQsqaUBKTNV-1">
          <mxGeometry x="186" y="250" width="100" height="40" as="geometry" />
        </mxCell>
        <mxCell id="n0wE-moi7yCpIpVkkYj8-37" value="" style="endArrow=none;html=1;rounded=0;" edge="1" parent="WIyWlLk6GJQsqaUBKTNV-1">
          <mxGeometry width="50" height="50" relative="1" as="geometry">
            <mxPoint x="136" y="480" as="sourcePoint" />
            <mxPoint x="139" y="230" as="targetPoint" />
          </mxGeometry>
        </mxCell>
        <mxCell id="n0wE-moi7yCpIpVkkYj8-38" value="&lt;font style=&quot;vertical-align: inherit;&quot;&gt;&lt;font style=&quot;vertical-align: inherit;&quot;&gt;nombre_materia&lt;/font&gt;&lt;/font&gt;" style="ellipse;whiteSpace=wrap;html=1;" vertex="1" parent="WIyWlLk6GJQsqaUBKTNV-1">
          <mxGeometry x="186" y="300" width="100" height="40" as="geometry" />
        </mxCell>
        <mxCell id="n0wE-moi7yCpIpVkkYj8-39" value="&lt;font style=&quot;vertical-align: inherit;&quot;&gt;&lt;font style=&quot;vertical-align: inherit;&quot;&gt;grupo_materia&lt;/font&gt;&lt;/font&gt;" style="ellipse;whiteSpace=wrap;html=1;" vertex="1" parent="WIyWlLk6GJQsqaUBKTNV-1">
          <mxGeometry x="186" y="350" width="100" height="40" as="geometry" />
        </mxCell>
        <mxCell id="n0wE-moi7yCpIpVkkYj8-40" value="&lt;font style=&quot;vertical-align: inherit;&quot;&gt;&lt;font style=&quot;vertical-align: inherit;&quot;&gt;id_profesor&lt;/font&gt;&lt;/font&gt;" style="ellipse;whiteSpace=wrap;html=1;" vertex="1" parent="WIyWlLk6GJQsqaUBKTNV-1">
          <mxGeometry x="186" y="400" width="100" height="40" as="geometry" />
        </mxCell>
        <mxCell id="n0wE-moi7yCpIpVkkYj8-41" value="&lt;font style=&quot;vertical-align: inherit;&quot;&gt;&lt;font style=&quot;vertical-align: inherit;&quot;&gt;cupos&lt;/font&gt;&lt;/font&gt;" style="ellipse;whiteSpace=wrap;html=1;" vertex="1" parent="WIyWlLk6GJQsqaUBKTNV-1">
          <mxGeometry x="186" y="450" width="100" height="40" as="geometry" />
        </mxCell>
        <mxCell id="n0wE-moi7yCpIpVkkYj8-42" value="" style="endArrow=none;html=1;rounded=0;entryX=0;entryY=0.5;entryDx=0;entryDy=0;" edge="1" parent="WIyWlLk6GJQsqaUBKTNV-1" target="n0wE-moi7yCpIpVkkYj8-36">
          <mxGeometry width="50" height="50" relative="1" as="geometry">
            <mxPoint x="140" y="269.58000000000004" as="sourcePoint" />
            <mxPoint x="180" y="269.58000000000004" as="targetPoint" />
          </mxGeometry>
        </mxCell>
        <mxCell id="n0wE-moi7yCpIpVkkYj8-43" value="" style="endArrow=none;html=1;rounded=0;entryX=0;entryY=0.5;entryDx=0;entryDy=0;" edge="1" parent="WIyWlLk6GJQsqaUBKTNV-1">
          <mxGeometry width="50" height="50" relative="1" as="geometry">
            <mxPoint x="140" y="319.71000000000004" as="sourcePoint" />
            <mxPoint x="186" y="320.13" as="targetPoint" />
          </mxGeometry>
        </mxCell>
        <mxCell id="n0wE-moi7yCpIpVkkYj8-44" value="" style="endArrow=none;html=1;rounded=0;entryX=0;entryY=0.5;entryDx=0;entryDy=0;" edge="1" parent="WIyWlLk6GJQsqaUBKTNV-1">
          <mxGeometry width="50" height="50" relative="1" as="geometry">
            <mxPoint x="140" y="369.71000000000004" as="sourcePoint" />
            <mxPoint x="186" y="370.13" as="targetPoint" />
          </mxGeometry>
        </mxCell>
        <mxCell id="n0wE-moi7yCpIpVkkYj8-45" value="" style="endArrow=none;html=1;rounded=0;entryX=0;entryY=0.5;entryDx=0;entryDy=0;" edge="1" parent="WIyWlLk6GJQsqaUBKTNV-1">
          <mxGeometry width="50" height="50" relative="1" as="geometry">
            <mxPoint x="140" y="419.71000000000004" as="sourcePoint" />
            <mxPoint x="186" y="420.13" as="targetPoint" />
          </mxGeometry>
        </mxCell>
        <mxCell id="n0wE-moi7yCpIpVkkYj8-46" value="" style="endArrow=none;html=1;rounded=0;entryX=0;entryY=0.5;entryDx=0;entryDy=0;" edge="1" parent="WIyWlLk6GJQsqaUBKTNV-1">
          <mxGeometry width="50" height="50" relative="1" as="geometry">
            <mxPoint x="136" y="480" as="sourcePoint" />
            <mxPoint x="186" y="480.42" as="targetPoint" />
          </mxGeometry>
        </mxCell>
        <mxCell id="n0wE-moi7yCpIpVkkYj8-50" value="&lt;font style=&quot;vertical-align: inherit;&quot;&gt;&lt;font style=&quot;vertical-align: inherit;&quot;&gt;alumnos&lt;/font&gt;&lt;/font&gt;" style="rounded=1;whiteSpace=wrap;html=1;fontSize=12;glass=0;strokeWidth=1;shadow=0;" vertex="1" parent="WIyWlLk6GJQsqaUBKTNV-1">
          <mxGeometry x="840" y="190" width="120" height="40" as="geometry" />
        </mxCell>
        <mxCell id="n0wE-moi7yCpIpVkkYj8-51" value="&lt;font style=&quot;vertical-align: inherit;&quot;&gt;&lt;font style=&quot;vertical-align: inherit;&quot;&gt;id_alumno&lt;/font&gt;&lt;/font&gt;" style="ellipse;whiteSpace=wrap;html=1;" vertex="1" parent="WIyWlLk6GJQsqaUBKTNV-1">
          <mxGeometry x="946" y="250" width="100" height="40" as="geometry" />
        </mxCell>
        <mxCell id="n0wE-moi7yCpIpVkkYj8-52" value="" style="endArrow=none;html=1;rounded=0;" edge="1" parent="WIyWlLk6GJQsqaUBKTNV-1">
          <mxGeometry width="50" height="50" relative="1" as="geometry">
            <mxPoint x="896" y="480" as="sourcePoint" />
            <mxPoint x="899" y="230" as="targetPoint" />
          </mxGeometry>
        </mxCell>
        <mxCell id="n0wE-moi7yCpIpVkkYj8-53" value="&lt;font style=&quot;vertical-align: inherit;&quot;&gt;&lt;font style=&quot;vertical-align: inherit;&quot;&gt;carnet_alumno&lt;/font&gt;&lt;/font&gt;" style="ellipse;whiteSpace=wrap;html=1;" vertex="1" parent="WIyWlLk6GJQsqaUBKTNV-1">
          <mxGeometry x="946" y="300" width="100" height="40" as="geometry" />
        </mxCell>
        <mxCell id="n0wE-moi7yCpIpVkkYj8-54" value="&lt;font style=&quot;vertical-align: inherit;&quot;&gt;&lt;font style=&quot;vertical-align: inherit;&quot;&gt;nombre_alumno&lt;/font&gt;&lt;/font&gt;" style="ellipse;whiteSpace=wrap;html=1;" vertex="1" parent="WIyWlLk6GJQsqaUBKTNV-1">
          <mxGeometry x="946" y="350" width="100" height="40" as="geometry" />
        </mxCell>
        <mxCell id="n0wE-moi7yCpIpVkkYj8-55" value="&lt;font style=&quot;vertical-align: inherit;&quot;&gt;&lt;font style=&quot;vertical-align: inherit;&quot;&gt;apellido_alumno&lt;/font&gt;&lt;/font&gt;" style="ellipse;whiteSpace=wrap;html=1;" vertex="1" parent="WIyWlLk6GJQsqaUBKTNV-1">
          <mxGeometry x="946" y="400" width="100" height="40" as="geometry" />
        </mxCell>
        <mxCell id="n0wE-moi7yCpIpVkkYj8-56" value="&lt;font style=&quot;vertical-align: inherit;&quot;&gt;&lt;font style=&quot;vertical-align: inherit;&quot;&gt;edad_alumno&lt;/font&gt;&lt;/font&gt;" style="ellipse;whiteSpace=wrap;html=1;" vertex="1" parent="WIyWlLk6GJQsqaUBKTNV-1">
          <mxGeometry x="946" y="450" width="100" height="40" as="geometry" />
        </mxCell>
        <mxCell id="n0wE-moi7yCpIpVkkYj8-57" value="" style="endArrow=none;html=1;rounded=0;entryX=0;entryY=0.5;entryDx=0;entryDy=0;" edge="1" parent="WIyWlLk6GJQsqaUBKTNV-1" target="n0wE-moi7yCpIpVkkYj8-51">
          <mxGeometry width="50" height="50" relative="1" as="geometry">
            <mxPoint x="900" y="269.58000000000004" as="sourcePoint" />
            <mxPoint x="940" y="269.58000000000004" as="targetPoint" />
          </mxGeometry>
        </mxCell>
        <mxCell id="n0wE-moi7yCpIpVkkYj8-58" value="" style="endArrow=none;html=1;rounded=0;entryX=0;entryY=0.5;entryDx=0;entryDy=0;" edge="1" parent="WIyWlLk6GJQsqaUBKTNV-1">
          <mxGeometry width="50" height="50" relative="1" as="geometry">
            <mxPoint x="900" y="319.71000000000004" as="sourcePoint" />
            <mxPoint x="946" y="320.13" as="targetPoint" />
          </mxGeometry>
        </mxCell>
        <mxCell id="n0wE-moi7yCpIpVkkYj8-59" value="" style="endArrow=none;html=1;rounded=0;entryX=0;entryY=0.5;entryDx=0;entryDy=0;" edge="1" parent="WIyWlLk6GJQsqaUBKTNV-1">
          <mxGeometry width="50" height="50" relative="1" as="geometry">
            <mxPoint x="900" y="369.71000000000004" as="sourcePoint" />
            <mxPoint x="946" y="370.13" as="targetPoint" />
          </mxGeometry>
        </mxCell>
        <mxCell id="n0wE-moi7yCpIpVkkYj8-60" value="" style="endArrow=none;html=1;rounded=0;entryX=0;entryY=0.5;entryDx=0;entryDy=0;" edge="1" parent="WIyWlLk6GJQsqaUBKTNV-1">
          <mxGeometry width="50" height="50" relative="1" as="geometry">
            <mxPoint x="900" y="419.71000000000004" as="sourcePoint" />
            <mxPoint x="946" y="420.13" as="targetPoint" />
          </mxGeometry>
        </mxCell>
        <mxCell id="n0wE-moi7yCpIpVkkYj8-61" value="" style="endArrow=none;html=1;rounded=0;entryX=0;entryY=0.5;entryDx=0;entryDy=0;" edge="1" parent="WIyWlLk6GJQsqaUBKTNV-1">
          <mxGeometry width="50" height="50" relative="1" as="geometry">
            <mxPoint x="896" y="480" as="sourcePoint" />
            <mxPoint x="946" y="480.42" as="targetPoint" />
          </mxGeometry>
        </mxCell>
        <mxCell id="n0wE-moi7yCpIpVkkYj8-84" value="" style="fontSize=12;html=1;endArrow=ERoneToMany;rounded=0;entryX=0.5;entryY=1;entryDx=0;entryDy=0;exitX=0.5;exitY=0;exitDx=0;exitDy=0;" edge="1" parent="WIyWlLk6GJQsqaUBKTNV-1" source="WIyWlLk6GJQsqaUBKTNV-6" target="WIyWlLk6GJQsqaUBKTNV-3">
          <mxGeometry width="100" height="100" relative="1" as="geometry">
            <mxPoint x="390" y="120" as="sourcePoint" />
            <mxPoint x="490" y="20" as="targetPoint" />
          </mxGeometry>
        </mxCell>
        <mxCell id="n0wE-moi7yCpIpVkkYj8-87" value="1 : N" style="edgeLabel;html=1;align=center;verticalAlign=middle;resizable=0;points=[];" vertex="1" connectable="0" parent="n0wE-moi7yCpIpVkkYj8-84">
          <mxGeometry x="-0.194" y="-1" relative="1" as="geometry">
            <mxPoint as="offset" />
          </mxGeometry>
        </mxCell>
        <mxCell id="n0wE-moi7yCpIpVkkYj8-85" value="" style="fontSize=12;html=1;endArrow=ERoneToMany;rounded=0;entryX=0.5;entryY=1;entryDx=0;entryDy=0;exitX=0.5;exitY=0;exitDx=0;exitDy=0;" edge="1" parent="WIyWlLk6GJQsqaUBKTNV-1" source="WIyWlLk6GJQsqaUBKTNV-7" target="WIyWlLk6GJQsqaUBKTNV-6">
          <mxGeometry width="100" height="100" relative="1" as="geometry">
            <mxPoint x="560" y="190" as="sourcePoint" />
            <mxPoint x="560" as="targetPoint" />
          </mxGeometry>
        </mxCell>
        <mxCell id="n0wE-moi7yCpIpVkkYj8-88" value="1 : N" style="edgeLabel;html=1;align=center;verticalAlign=middle;resizable=0;points=[];" vertex="1" connectable="0" parent="n0wE-moi7yCpIpVkkYj8-85">
          <mxGeometry x="-0.2299" y="1" relative="1" as="geometry">
            <mxPoint as="offset" />
          </mxGeometry>
        </mxCell>
        <mxCell id="WIyWlLk6GJQsqaUBKTNV-6" value="&lt;font style=&quot;vertical-align: inherit;&quot;&gt;&lt;font style=&quot;vertical-align: inherit;&quot;&gt;tienen&lt;/font&gt;&lt;/font&gt;" style="rhombus;whiteSpace=wrap;html=1;shadow=0;fontFamily=Helvetica;fontSize=12;align=center;strokeWidth=1;spacing=6;spacingTop=-4;" parent="WIyWlLk6GJQsqaUBKTNV-1" vertex="1">
          <mxGeometry x="510" y="40" width="100" height="80" as="geometry" />
        </mxCell>
        <mxCell id="n0wE-moi7yCpIpVkkYj8-89" value="" style="fontSize=12;html=1;endArrow=ERoneToMany;rounded=0;entryX=1;entryY=0.5;entryDx=0;entryDy=0;exitX=0;exitY=0.5;exitDx=0;exitDy=0;" edge="1" parent="WIyWlLk6GJQsqaUBKTNV-1" source="n0wE-moi7yCpIpVkkYj8-66" target="WIyWlLk6GJQsqaUBKTNV-7">
          <mxGeometry width="100" height="100" relative="1" as="geometry">
            <mxPoint x="850" y="160" as="sourcePoint" />
            <mxPoint x="950" y="60" as="targetPoint" />
          </mxGeometry>
        </mxCell>
        <mxCell id="n0wE-moi7yCpIpVkkYj8-92" value="1:N" style="edgeLabel;html=1;align=center;verticalAlign=middle;resizable=0;points=[];" vertex="1" connectable="0" parent="n0wE-moi7yCpIpVkkYj8-89">
          <mxGeometry x="0.089" y="-3" relative="1" as="geometry">
            <mxPoint as="offset" />
          </mxGeometry>
        </mxCell>
        <mxCell id="n0wE-moi7yCpIpVkkYj8-90" value="" style="fontSize=12;html=1;endArrow=ERoneToMany;rounded=0;entryX=1;entryY=0.5;entryDx=0;entryDy=0;exitX=0;exitY=0.5;exitDx=0;exitDy=0;" edge="1" parent="WIyWlLk6GJQsqaUBKTNV-1" source="n0wE-moi7yCpIpVkkYj8-50" target="n0wE-moi7yCpIpVkkYj8-66">
          <mxGeometry width="100" height="100" relative="1" as="geometry">
            <mxPoint x="840" y="210" as="sourcePoint" />
            <mxPoint x="620" y="210" as="targetPoint" />
          </mxGeometry>
        </mxCell>
        <mxCell id="n0wE-moi7yCpIpVkkYj8-91" value="1:N" style="edgeLabel;html=1;align=center;verticalAlign=middle;resizable=0;points=[];" vertex="1" connectable="0" parent="n0wE-moi7yCpIpVkkYj8-90">
          <mxGeometry x="0.0143" y="-1" relative="1" as="geometry">
            <mxPoint as="offset" />
          </mxGeometry>
        </mxCell>
        <mxCell id="n0wE-moi7yCpIpVkkYj8-66" value="&lt;font style=&quot;vertical-align: inherit;&quot;&gt;&lt;font style=&quot;vertical-align: inherit;&quot;&gt;&lt;font style=&quot;vertical-align: inherit;&quot;&gt;&lt;font style=&quot;vertical-align: inherit;&quot;&gt;&lt;font style=&quot;vertical-align: inherit;&quot;&gt;&lt;font style=&quot;vertical-align: inherit;&quot;&gt;&lt;font style=&quot;vertical-align: inherit;&quot;&gt;&lt;font style=&quot;vertical-align: inherit;&quot;&gt;paga&lt;/font&gt;&lt;/font&gt;&lt;/font&gt;&lt;/font&gt;&lt;/font&gt;&lt;/font&gt;&lt;/font&gt;&lt;/font&gt;" style="rhombus;whiteSpace=wrap;html=1;shadow=0;fontFamily=Helvetica;fontSize=12;align=center;strokeWidth=1;spacing=6;spacingTop=-4;" vertex="1" parent="WIyWlLk6GJQsqaUBKTNV-1">
          <mxGeometry x="690" y="170" width="100" height="80" as="geometry" />
        </mxCell>
        <mxCell id="n0wE-moi7yCpIpVkkYj8-93" value="" style="fontSize=12;html=1;endArrow=ERoneToMany;rounded=0;exitX=0.5;exitY=1;exitDx=0;exitDy=0;entryX=0.5;entryY=0;entryDx=0;entryDy=0;" edge="1" parent="WIyWlLk6GJQsqaUBKTNV-1" source="n0wE-moi7yCpIpVkkYj8-24" target="n0wE-moi7yCpIpVkkYj8-35">
          <mxGeometry width="100" height="100" relative="1" as="geometry">
            <mxPoint x="200" y="100" as="sourcePoint" />
            <mxPoint x="300" as="targetPoint" />
          </mxGeometry>
        </mxCell>
        <mxCell id="n0wE-moi7yCpIpVkkYj8-96" value="1 : N" style="edgeLabel;html=1;align=center;verticalAlign=middle;resizable=0;points=[];" vertex="1" connectable="0" parent="n0wE-moi7yCpIpVkkYj8-93">
          <mxGeometry x="-0.27" y="-2" relative="1" as="geometry">
            <mxPoint as="offset" />
          </mxGeometry>
        </mxCell>
        <mxCell id="n0wE-moi7yCpIpVkkYj8-94" value="" style="fontSize=12;html=1;endArrow=ERoneToMany;rounded=0;exitX=0.5;exitY=1;exitDx=0;exitDy=0;entryX=0.5;entryY=0;entryDx=0;entryDy=0;" edge="1" parent="WIyWlLk6GJQsqaUBKTNV-1" source="n0wE-moi7yCpIpVkkYj8-23" target="n0wE-moi7yCpIpVkkYj8-24">
          <mxGeometry width="100" height="100" relative="1" as="geometry">
            <mxPoint x="140" as="sourcePoint" />
            <mxPoint x="140" y="190" as="targetPoint" />
          </mxGeometry>
        </mxCell>
        <mxCell id="n0wE-moi7yCpIpVkkYj8-95" value="1 : N" style="edgeLabel;html=1;align=center;verticalAlign=middle;resizable=0;points=[];" vertex="1" connectable="0" parent="n0wE-moi7yCpIpVkkYj8-94">
          <mxGeometry x="-0.3906" y="2" relative="1" as="geometry">
            <mxPoint as="offset" />
          </mxGeometry>
        </mxCell>
        <mxCell id="n0wE-moi7yCpIpVkkYj8-24" value="&lt;font style=&quot;vertical-align: inherit;&quot;&gt;&lt;font style=&quot;vertical-align: inherit;&quot;&gt;imparten&lt;/font&gt;&lt;/font&gt;" style="rhombus;whiteSpace=wrap;html=1;shadow=0;fontFamily=Helvetica;fontSize=12;align=center;strokeWidth=1;spacing=6;spacingTop=-4;" vertex="1" parent="WIyWlLk6GJQsqaUBKTNV-1">
          <mxGeometry x="90" y="50" width="100" height="80" as="geometry" />
        </mxCell>
        <mxCell id="n0wE-moi7yCpIpVkkYj8-97" value="" style="fontSize=12;html=1;endArrow=ERoneToMany;rounded=0;entryX=0;entryY=0.5;entryDx=0;entryDy=0;exitX=1;exitY=0.5;exitDx=0;exitDy=0;" edge="1" parent="WIyWlLk6GJQsqaUBKTNV-1" source="n0wE-moi7yCpIpVkkYj8-47" target="WIyWlLk6GJQsqaUBKTNV-7">
          <mxGeometry width="100" height="100" relative="1" as="geometry">
            <mxPoint x="370" y="290" as="sourcePoint" />
            <mxPoint x="470" y="190" as="targetPoint" />
          </mxGeometry>
        </mxCell>
        <mxCell id="n0wE-moi7yCpIpVkkYj8-100" value="1 ; N" style="edgeLabel;html=1;align=center;verticalAlign=middle;resizable=0;points=[];" vertex="1" connectable="0" parent="n0wE-moi7yCpIpVkkYj8-97">
          <mxGeometry x="-0.2717" y="-2" relative="1" as="geometry">
            <mxPoint as="offset" />
          </mxGeometry>
        </mxCell>
        <mxCell id="n0wE-moi7yCpIpVkkYj8-98" value="" style="fontSize=12;html=1;endArrow=ERoneToMany;rounded=0;entryX=0;entryY=0.5;entryDx=0;entryDy=0;exitX=1;exitY=0.5;exitDx=0;exitDy=0;" edge="1" parent="WIyWlLk6GJQsqaUBKTNV-1" source="n0wE-moi7yCpIpVkkYj8-35" target="n0wE-moi7yCpIpVkkYj8-47">
          <mxGeometry width="100" height="100" relative="1" as="geometry">
            <mxPoint x="200" y="210" as="sourcePoint" />
            <mxPoint x="500" y="210" as="targetPoint" />
          </mxGeometry>
        </mxCell>
        <mxCell id="n0wE-moi7yCpIpVkkYj8-99" value="1 : N" style="edgeLabel;html=1;align=center;verticalAlign=middle;resizable=0;points=[];" vertex="1" connectable="0" parent="n0wE-moi7yCpIpVkkYj8-98">
          <mxGeometry x="0.1752" y="2" relative="1" as="geometry">
            <mxPoint as="offset" />
          </mxGeometry>
        </mxCell>
        <mxCell id="n0wE-moi7yCpIpVkkYj8-47" value="&lt;font style=&quot;vertical-align: inherit;&quot;&gt;&lt;font style=&quot;vertical-align: inherit;&quot;&gt;posee&lt;/font&gt;&lt;/font&gt;" style="rhombus;whiteSpace=wrap;html=1;shadow=0;fontFamily=Helvetica;fontSize=12;align=center;strokeWidth=1;spacing=6;spacingTop=-4;" vertex="1" parent="WIyWlLk6GJQsqaUBKTNV-1">
          <mxGeometry x="314" y="170" width="100" height="80" as="geometry" />
        </mxCell>
      </root>
    </mxGraphModel>
  </diagram>
</mxfile>
